HIERARCHY
ROOT Hips
{
	OFFSET	0.00	0.00	0.00
	CHANNELS 6 Xposition Yposition Zposition Zrotation Xrotation Yrotation
	JOINT LeftUpLeg
	{
		OFFSET	 0.126116	-0.014019	-0.065224
		CHANNELS 3 Zrotation Xrotation Yrotation
		JOINT LeftLeg
		{
			OFFSET	 0.000000	 0.000000	 0.569914
			CHANNELS 3 Zrotation Xrotation Yrotation
			JOINT LeftFoot
			{
				OFFSET	 0.000000	 0.000000	 0.544423
				CHANNELS 3 Zrotation Xrotation Yrotation
				JOINT LeftToeBase
				{
					OFFSET	 0.000000	 0.000000	 0.207117
					CHANNELS 3 Zrotation Xrotation Yrotation
					End Site
					{
						OFFSET	 0.000000	 0.000000	 0.207117
					}
				}
			}
		}
	}
	JOINT RightUpLeg
	{
		OFFSET	-0.124023	-0.008373	-0.065224
		CHANNELS 3 Zrotation Xrotation Yrotation
		JOINT RightLeg
		{
			OFFSET	 0.000000	 0.000000	 0.570047
			CHANNELS 3 Zrotation Xrotation Yrotation
			JOINT RightFoot
			{
				OFFSET	 0.000000	 0.000000	 0.544354
				CHANNELS 3 Zrotation Xrotation Yrotation
				JOINT RightToeBase
				{
					OFFSET	 0.000000	 0.000000	 0.207540
					CHANNELS 3 Zrotation Xrotation Yrotation
					End Site
					{
						OFFSET	 0.000000	 0.000000	 0.207540
					}
				}
			}
		}
	}
	JOINT Spine
	{
		OFFSET	 0.000184	-0.007763	 0.117403
		CHANNELS 3 Zrotation Xrotation Yrotation
		JOINT Spine1
		{
			OFFSET	 0.000000	 0.000000	 0.137269
			CHANNELS 3 Zrotation Xrotation Yrotation
			JOINT Spine2
			{
				OFFSET	 0.000000	 0.000000	 0.156879
				CHANNELS 3 Zrotation Xrotation Yrotation
				JOINT LeftShoulder
				{
					OFFSET	 0.080501	-0.002496	 0.160144
					CHANNELS 3 Zrotation Xrotation Yrotation
					JOINT LeftArm
					{
						OFFSET	 0.000000	 0.000000	 0.164363
						CHANNELS 3 Zrotation Xrotation Yrotation
						JOINT LeftForeArm
						{
							OFFSET	 0.000000	 0.000000	 0.364576
							CHANNELS 3 Zrotation Xrotation Yrotation
							JOINT LeftHand
							{
								OFFSET	 0.000000	 0.000000	 0.360812
								CHANNELS 3 Zrotation Xrotation Yrotation
								JOINT LeftHandIndex1
								{
									OFFSET	 0.000000	 0.000000	 0.086006
									CHANNELS 3 Zrotation Xrotation Yrotation
									JOINT LeftHandIndex2
									{
										OFFSET	 0.000000	 0.000000	 0.047236
										CHANNELS 3 Zrotation Xrotation Yrotation
										JOINT LeftHandIndex3
										{
											OFFSET	-0.004284	-0.000551	 0.038166
											CHANNELS 3 Zrotation Xrotation Yrotation
											End Site
											{
												OFFSET	-0.004284	-0.000551	 0.038166
											}
										}
									}
								}
							}
						}
					}
				}
				JOINT Neck
				{
					OFFSET	 0.000000	 0.000000	 0.176489
					CHANNELS 3 Zrotation Xrotation Yrotation
					JOINT Head
					{
						OFFSET	 0.000000	-0.001747	 0.077940
						CHANNELS 3 Zrotation Xrotation Yrotation
						End Site
						{
							OFFSET	 0.000000	-0.001747	 0.077940
						}
					}
				}
				JOINT RightShoulder
				{
					OFFSET	-0.080363	 0.000306	 0.159706
					CHANNELS 3 Zrotation Xrotation Yrotation
					JOINT RightArm
					{
						OFFSET	 0.000000	 0.000000	 0.164196
						CHANNELS 3 Zrotation Xrotation Yrotation
						JOINT RightForeArm
						{
							OFFSET	 0.000000	 0.000000	 0.365611
							CHANNELS 3 Zrotation Xrotation Yrotation
							JOINT RightHand
							{
								OFFSET	 0.000000	 0.000000	 0.360648
								CHANNELS 3 Zrotation Xrotation Yrotation
								JOINT RightHandIndex1
								{
									OFFSET	 0.000000	 0.000000	 0.069977
									CHANNELS 3 Zrotation Xrotation Yrotation
									JOINT RightHandIndex2
									{
										OFFSET	 0.000000	 0.000000	 0.052305
										CHANNELS 3 Zrotation Xrotation Yrotation
										JOINT RightHandIndex3
										{
											OFFSET	 0.009002	-0.000782	 0.042196
											CHANNELS 3 Zrotation Xrotation Yrotation
											End Site
											{
												OFFSET	 0.009002	-0.000782	 0.042196
											}
										}
									}
								}
							}
						}
					}
				}
			}
		}
	}
}
MOTION
Frames:    4
Frame Time: 0.03333334
-0.040006	 0.264530	 1.003650	 3.401593	 33.520440	-8.175976	 45.901590	-82.484770	-137.640400	 7.286738	-73.786950	 7.400389	 46.124980	 83.208810	-48.977490	-2.385832	 28.452790	-0.000001	 78.901150	-80.964190	-102.358500	-20.701110	-77.666440	-15.212660	 14.958420	 83.593170	 1.639752	 2.384659	 28.388700	-0.000001	-3.795593	 15.413990	 0.043462	-1.483086	 23.165420	 0.148976	-6.567458	-3.090273	 4.389825	-99.075190	 68.190900	 157.075300	 6.614689	-5.525067	-51.286070	-23.870250	 3.368209	-11.380350	-40.142570	-30.101810	-26.303360	-2.027600	 6.559038	 9.033609	-5.188889	 0.308190	 3.541030	-5.234859	 0.342567	 0.430617	 0.124830	 16.329680	-5.412211	-5.857350	-26.712400	-3.789695	 97.370130	 64.613240	-159.359600	-8.857512	 5.459127	 59.397960	 6.903065	 8.933377	 31.718750	 23.274720	-30.054650	 21.686030	 1.803333	 3.979147	-15.098590	 4.898592	 3.004813	-9.310344	 5.224449	 0.395017	 2.014677
-0.038216	 0.263228	 1.023538	 3.123256	 31.758680	-7.372105	 29.939340	-79.722390	-153.620000	 5.937511	-71.060310	 6.012641	 38.791630	 82.693520	-41.481700	-2.385832	 28.452790	-0.000001	 54.287520	-80.352310	-126.465800	-18.453090	-74.869580	-12.861110	 13.294490	 82.839220	 3.242102	 2.384659	 28.388700	-0.000001	-1.464859	 15.497990	-0.219939	-0.837706	 23.955650	-0.633924	-7.094736	-4.660436	 3.892733	-98.248450	 69.086010	 158.307200	 6.821145	-2.069207	-53.221900	-23.258640	 3.352297	-11.364300	-40.973510	-29.340280	-27.334380	-2.027600	 6.559038	 9.033609	-5.188889	 0.308190	 3.541030	-5.234859	 0.342567	 0.430617	-0.652511	 9.373521	-3.700425	-6.510704	-19.642400	-4.032212	 96.959250	 64.117680	-160.871500	-10.023100	 5.303755	 59.237770	 7.155358	 9.752676	 33.900600	 22.883930	-28.344830	 23.138590	 1.803333	 3.979147	-15.098590	 4.898592	 3.004813	-9.310344	 5.224449	 0.395017	 2.014677
-0.035684	 0.262736	 1.043762	 2.737955	 29.859980	-6.454960	 20.907780	-76.357640	-162.784500	 5.103333	-68.193350	 5.127075	 32.502310	 82.065830	-35.114610	-2.385833	 28.452760	 0.000004	 34.604710	-78.143340	-145.701800	-17.053970	-71.835330	-11.330000	 12.225730	 82.092120	 4.276103	 2.384659	 28.388700	-0.000001	 0.585458	 15.635360	-0.450097	-0.326622	 24.515690	-1.249035	-7.549197	-6.292784	 3.343192	-96.840650	 71.209110	 159.493200	 7.872797	 2.593289	-55.348870	-22.515500	 3.315531	-11.314970	-41.916550	-28.585790	-28.938370	-2.027600	 6.559038	 9.033609	-5.188889	 0.308190	 3.541030	-5.234859	 0.342567	 0.430617	-1.090239	 1.589035	-2.371433	-6.966074	-11.906140	-4.012305	 96.341640	 64.856510	-161.851600	-11.442150	 7.179397	 58.766310	 6.398102	 10.149240	 36.210400	 22.202950	-26.930390	 23.793010	 1.803333	 3.979147	-15.098590	 4.898592	 3.004813	-9.310344	 5.224449	 0.395017	 2.014677
-0.031990	 0.261775	 1.067595	 2.385666	 27.568160	-5.332191	 14.646180	-72.043100	-169.216000	 4.844294	-64.681450	 4.757943	 26.767020	 81.167270	-29.478100	-2.385833	 28.452750	 0.000004	 20.025620	-74.258200	-159.760900	-15.325550	-68.066720	-9.456308	 11.103740	 81.262190	 5.241019	 2.384659	 28.388700	-0.000001	 2.823858	 15.786800	-0.771094	 0.283385	 24.880540	-2.025600	-7.952034	-8.013879	 2.887041	-94.427940	 74.982190	 160.543900	 9.709411	 8.680194	-58.654720	-21.546530	 3.248472	-11.217660	-42.725420	-27.931450	-30.522920	-2.027600	 6.559038	 9.033609	-5.188889	 0.308190	 3.541030	-5.234859	 0.342567	 0.430617	-1.438088	-7.326233	-2.293058	-7.155076	-3.221893	-2.891476	 95.101360	 67.257800	-163.104900	-13.273520	 10.899130	 59.123440	 5.179284	 10.446390	 39.185680	 21.833400	-26.421860	 24.403780	 1.803333	 3.979147	-15.098590	 4.898592	 3.004813	-9.310344	 5.224449	 0.395017	 2.014677
